<svg width="65" height="65" viewBox="0 0 65 65" fill="none" xmlns="http://www.w3.org/2000/svg">
<g filter="url(#filter0_ng_79_2163)">
<mask id="path-1-inside-1_79_2163" fill="white">
<path d="M39.1523 6.52844H46.4639C52.6848 6.52844 57.7285 11.5712 57.7285 17.7921V25.1036L64.1279 32.1281L57.7285 39.1515V46.464C57.7285 52.6849 52.6848 57.7277 46.4639 57.7277H39.1523L32.1279 64.1281L25.1035 57.7277H17.792C11.5711 57.7276 6.52832 52.6849 6.52832 46.464V39.1525L0.12793 32.1281L6.52832 25.1027V17.7921C6.52832 11.5712 11.5711 6.52853 17.792 6.52844H25.1035L32.1279 0.128052L39.1523 6.52844Z"/>
</mask>
<path d="M39.1523 6.52844H46.4639C52.6848 6.52844 57.7285 11.5712 57.7285 17.7921V25.1036L64.1279 32.1281L57.7285 39.1515V46.464C57.7285 52.6849 52.6848 57.7277 46.4639 57.7277H39.1523L32.1279 64.1281L25.1035 57.7277H17.792C11.5711 57.7276 6.52832 52.6849 6.52832 46.464V39.1525L0.12793 32.1281L6.52832 25.1027V17.7921C6.52832 11.5712 11.5711 6.52853 17.792 6.52844H25.1035L32.1279 0.128052L39.1523 6.52844Z" fill="#F17146"/>
<path d="M39.1523 6.52844L38.2902 7.47459L38.6567 7.80844H39.1523V6.52844ZM57.7285 25.1036H56.4485V25.5993L56.7823 25.9657L57.7285 25.1036ZM64.1279 32.1281L65.0741 32.9901L65.8595 32.1281L65.0741 31.266L64.1279 32.1281ZM57.7285 39.1515L56.7824 38.2894L56.4485 38.6558V39.1515H57.7285ZM39.1523 57.7277V56.4477H38.6567L38.2902 56.7815L39.1523 57.7277ZM32.1279 64.1281L31.2658 65.0742L32.1279 65.8597L32.99 65.0742L32.1279 64.1281ZM25.1035 57.7277L25.9656 56.7815L25.5992 56.4477H25.1035V57.7277ZM17.792 57.7277L17.792 59.0077H17.792V57.7277ZM6.52832 39.1525H7.80832V38.6568L7.47447 38.2904L6.52832 39.1525ZM0.12793 32.1281L-0.818277 31.266L-1.60367 32.1281L-0.818217 32.9901L0.12793 32.1281ZM6.52832 25.1027L7.47453 25.9647L7.80832 25.5983V25.1027H6.52832ZM17.792 6.52844V5.24844L17.792 5.24844L17.792 6.52844ZM25.1035 6.52844V7.80844H25.5992L25.9656 7.47459L25.1035 6.52844ZM32.1279 0.128052L32.99 -0.818095L32.1279 -1.6036L31.2658 -0.818095L32.1279 0.128052ZM39.1523 6.52844V7.80844H46.4639V6.52844V5.24844H39.1523V6.52844ZM46.4639 6.52844V7.80844C51.978 7.80844 56.4485 12.2782 56.4485 17.7921H57.7285H59.0085C59.0085 10.8641 53.3916 5.24844 46.4639 5.24844V6.52844ZM57.7285 17.7921H56.4485V25.1036H57.7285H59.0085V17.7921H57.7285ZM57.7285 25.1036L56.7823 25.9657L63.1817 32.9901L64.1279 32.1281L65.0741 31.266L58.6747 24.2416L57.7285 25.1036ZM64.1279 32.1281L63.1818 31.266L56.7824 38.2894L57.7285 39.1515L58.6747 40.0136L65.0741 32.9901L64.1279 32.1281ZM57.7285 39.1515H56.4485V46.464H57.7285H59.0085V39.1515H57.7285ZM57.7285 46.464H56.4485C56.4485 51.9779 51.978 56.4477 46.4639 56.4477V57.7277V59.0077C53.3916 59.0077 59.0085 53.392 59.0085 46.464H57.7285ZM46.4639 57.7277V56.4477H39.1523V57.7277V59.0077H46.4639V57.7277ZM39.1523 57.7277L38.2902 56.7815L31.2658 63.1819L32.1279 64.1281L32.99 65.0742L40.0144 58.6738L39.1523 57.7277ZM32.1279 64.1281L32.99 63.1819L25.9656 56.7815L25.1035 57.7277L24.2414 58.6738L31.2658 65.0742L32.1279 64.1281ZM25.1035 57.7277V56.4477H17.792V57.7277V59.0077H25.1035V57.7277ZM17.792 57.7277L17.792 56.4477C12.278 56.4476 7.80832 51.9779 7.80832 46.464H6.52832H5.24832C5.24832 53.3918 10.8642 59.0076 17.792 59.0077L17.792 57.7277ZM6.52832 46.464H7.80832V39.1525H6.52832H5.24832V46.464H6.52832ZM6.52832 39.1525L7.47447 38.2904L1.07408 31.266L0.12793 32.1281L-0.818217 32.9901L5.58217 40.0146L6.52832 39.1525ZM0.12793 32.1281L1.07414 32.9901L7.47453 25.9647L6.52832 25.1027L5.58211 24.2406L-0.818277 31.266L0.12793 32.1281ZM6.52832 25.1027H7.80832V17.7921H6.52832H5.24832V25.1027H6.52832ZM6.52832 17.7921H7.80832C7.80832 12.2782 12.278 7.80852 17.792 7.80844L17.792 6.52844L17.792 5.24844C10.8642 5.24855 5.24832 10.8643 5.24832 17.7921H6.52832ZM17.792 6.52844V7.80844H25.1035V6.52844V5.24844H17.792V6.52844ZM25.1035 6.52844L25.9656 7.47459L32.99 1.0742L32.1279 0.128052L31.2658 -0.818095L24.2414 5.5823L25.1035 6.52844ZM32.1279 0.128052L31.2658 1.0742L38.2902 7.47459L39.1523 6.52844L40.0144 5.5823L32.99 -0.818095L32.1279 0.128052Z" fill="#EF8997" mask="url(#path-1-inside-1_79_2163)"/>
<mask id="path-3-inside-2_79_2163" fill="white">
<path d="M37.0466 14.2085H42.1638C46.5184 14.2086 50.0486 17.7387 50.0486 22.0933V27.2104L54.5281 32.1284L50.0486 37.0444V42.1636C50.0484 46.518 46.5183 50.0482 42.1638 50.0483H37.0457L32.1287 54.5278L27.2117 50.0483H22.0935C17.739 50.0483 14.2089 46.5181 14.2087 42.1636V37.0454L9.72827 32.1284L14.2087 27.2095V22.0933C14.2087 17.7386 17.7389 14.2085 22.0935 14.2085H27.2107L32.1287 9.72803L37.0466 14.2085Z"/>
</mask>
<path d="M37.0466 14.2085H42.1638C46.5184 14.2086 50.0486 17.7387 50.0486 22.0933V27.2104L54.5281 32.1284L50.0486 37.0444V42.1636C50.0484 46.518 46.5183 50.0482 42.1638 50.0483H37.0457L32.1287 54.5278L27.2117 50.0483H22.0935C17.739 50.0483 14.2089 46.5181 14.2087 42.1636V37.0454L9.72827 32.1284L14.2087 27.2095V22.0933C14.2087 17.7386 17.7389 14.2085 22.0935 14.2085H27.2107L32.1287 9.72803L37.0466 14.2085Z" fill="#EF8997"/>
<path d="M37.0466 14.2085L36.6156 14.6816L36.7988 14.8485H37.0466V14.2085ZM42.1638 14.2085L42.1638 13.5685H42.1638V14.2085ZM50.0486 27.2104H49.4086V27.4582L49.5754 27.6414L50.0486 27.2104ZM54.5281 32.1284L55.0011 32.5595L55.3938 32.1285L55.0012 31.6975L54.5281 32.1284ZM50.0486 37.0444L49.5755 36.6134L49.4086 36.7966V37.0444H50.0486ZM50.0486 42.1636L50.6886 42.1636V42.1636H50.0486ZM42.1638 50.0483V50.6883H42.1638L42.1638 50.0483ZM37.0457 50.0483V49.4083H36.7978L36.6146 49.5752L37.0457 50.0483ZM32.1287 54.5278L31.6977 55.0009L32.1287 55.3936L32.5597 55.0009L32.1287 54.5278ZM27.2117 50.0483L27.6427 49.5752L27.4595 49.4083H27.2117V50.0483ZM14.2087 42.1636H13.5687L13.5687 42.1636L14.2087 42.1636ZM14.2087 37.0454H14.8487V36.7976L14.6818 36.6143L14.2087 37.0454ZM9.72827 32.1284L9.25513 31.6974L8.8625 32.1285L9.25521 32.5595L9.72827 32.1284ZM14.2087 27.2095L14.6819 27.6404L14.8487 27.4573V27.2095H14.2087ZM27.2107 14.2085V14.8485H27.4585L27.6417 14.6816L27.2107 14.2085ZM32.1287 9.72803L32.5597 9.25493L32.1287 8.86225L31.6976 9.25493L32.1287 9.72803ZM37.0466 14.2085V14.8485H42.1638V14.2085V13.5685H37.0466V14.2085ZM42.1638 14.2085L42.1638 14.8485C46.1649 14.8486 49.4086 18.0922 49.4086 22.0933H50.0486H50.6886C50.6886 17.3852 46.8718 13.5686 42.1638 13.5685L42.1638 14.2085ZM50.0486 22.0933H49.4086V27.2104H50.0486H50.6886V22.0933H50.0486ZM50.0486 27.2104L49.5754 27.6414L54.0549 32.5594L54.5281 32.1284L55.0012 31.6975L50.5217 26.7795L50.0486 27.2104ZM54.5281 32.1284L54.055 31.6974L49.5755 36.6134L50.0486 37.0444L50.5216 37.4755L55.0011 32.5595L54.5281 32.1284ZM50.0486 37.0444H49.4086V42.1636H50.0486H50.6886V37.0444H50.0486ZM50.0486 42.1636L49.4086 42.1635C49.4084 46.1646 46.1648 49.4082 42.1638 49.4083L42.1638 50.0483L42.1638 50.6883C46.8717 50.6882 50.6884 46.8715 50.6886 42.1636L50.0486 42.1636ZM42.1638 50.0483V49.4083H37.0457V50.0483V50.6883H42.1638V50.0483ZM37.0457 50.0483L36.6146 49.5752L31.6977 54.0547L32.1287 54.5278L32.5597 55.0009L37.4767 50.5214L37.0457 50.0483ZM32.1287 54.5278L32.5597 54.0547L27.6427 49.5752L27.2117 50.0483L26.7807 50.5214L31.6977 55.0009L32.1287 54.5278ZM27.2117 50.0483V49.4083H22.0935V50.0483V50.6883H27.2117V50.0483ZM22.0935 50.0483V49.4083C18.0924 49.4083 14.8489 46.1646 14.8487 42.1635L14.2087 42.1636L13.5687 42.1636C13.5689 46.8715 17.3855 50.6883 22.0935 50.6883V50.0483ZM14.2087 42.1636H14.8487V37.0454H14.2087H13.5687V42.1636H14.2087ZM14.2087 37.0454L14.6818 36.6143L10.2013 31.6974L9.72827 32.1284L9.25521 32.5595L13.7357 37.4765L14.2087 37.0454ZM9.72827 32.1284L10.2014 32.5594L14.6819 27.6404L14.2087 27.2095L13.7356 26.7785L9.25513 31.6974L9.72827 32.1284ZM14.2087 27.2095H14.8487V22.0933H14.2087H13.5687V27.2095H14.2087ZM14.2087 22.0933H14.8487C14.8487 18.0921 18.0923 14.8485 22.0935 14.8485V14.2085V13.5685C17.3854 13.5685 13.5687 17.3851 13.5687 22.0933H14.2087ZM22.0935 14.2085V14.8485H27.2107V14.2085V13.5685H22.0935V14.2085ZM27.2107 14.2085L27.6417 14.6816L32.5597 10.2011L32.1287 9.72803L31.6976 9.25493L26.7797 13.7354L27.2107 14.2085ZM32.1287 9.72803L31.6976 10.2011L36.6156 14.6816L37.0466 14.2085L37.4776 13.7354L32.5597 9.25493L32.1287 9.72803Z" fill="white" mask="url(#path-3-inside-2_79_2163)"/>
</g>
<defs>
<filter id="filter0_ng_79_2163" x="-7.03186e-05" y="5.17517e-05" width="64.256" height="64.256" filterUnits="userSpaceOnUse" color-interpolation-filters="sRGB">
<feFlood flood-opacity="0" result="BackgroundImageFix"/>
<feBlend mode="normal" in="SourceGraphic" in2="BackgroundImageFix" result="shape"/>
<feTurbulence type="fractalNoise" baseFrequency="7.8124995231628418 7.8124995231628418" stitchTiles="stitch" numOctaves="3" result="noise" seed="897" />
<feColorMatrix in="noise" type="luminanceToAlpha" result="alphaNoise" />
<feComponentTransfer in="alphaNoise" result="coloredNoise1">
<feFuncA type="discrete" tableValues="0 0 0 0 0 0 0 0 0 0 0 0 0 0 0 0 0 0 1 1 1 1 1 1 1 1 1 1 1 1 1 0 0 0 0 0 0 0 0 0 0 0 0 0 0 0 0 0 0 0 0 0 0 0 0 0 0 0 0 0 0 0 0 0 0 0 0 0 0 0 0 0 0 0 0 0 0 0 0 0 0 0 0 0 0 0 0 0 0 0 0 0 0 0 0 0 0 0 0 0 "/>
</feComponentTransfer>
<feComposite operator="in" in2="shape" in="coloredNoise1" result="noise1Clipped" />
<feFlood flood-color="#EF8997" result="color1Flood" />
<feComposite operator="in" in2="noise1Clipped" in="color1Flood" result="color1" />
<feMerge result="effect1_noise_79_2163">
<feMergeNode in="shape" />
<feMergeNode in="color1" />
</feMerge>
<feTurbulence type="fractalNoise" baseFrequency="3.125 3.125" numOctaves="3" seed="3459" />
<feDisplacementMap in="effect1_noise_79_2163" scale="0.25600001215934753" xChannelSelector="R" yChannelSelector="G" result="displacedImage" width="100%" height="100%" />
<feMerge result="effect2_texture_79_2163">
<feMergeNode in="displacedImage"/>
</feMerge>
</filter>
</defs>
</svg>
