<svg width="65" height="65" viewBox="0 0 65 65" fill="none" xmlns="http://www.w3.org/2000/svg">
<g filter="url(#filter0_gn_79_2172)">
<mask id="path-1-inside-1_79_2172" fill="white">
<path d="M32.1599 0.160034C37.0272 0.160034 41.64 1.24828 45.7703 3.19226L56.8035 3.70593C58.8665 3.8019 60.518 5.45344 60.614 7.51648L61.1267 18.5497C63.0708 22.6801 64.1599 27.2926 64.1599 32.16C64.1599 37.0272 63.0706 41.6392 61.1267 45.7694L60.614 56.8036C60.518 58.8666 58.8665 60.5182 56.8035 60.6141L45.7703 61.1268C41.6399 63.0709 37.0274 64.16 32.1599 64.16C27.2922 64.16 22.6792 63.0712 18.5486 61.1268L7.51636 60.6141C5.45332 60.5182 3.80276 58.8666 3.70679 56.8036L3.19312 45.7714C1.24879 41.6408 0.159912 37.0278 0.159912 32.16C0.159912 27.292 1.24855 22.6785 3.19312 18.5477L3.70679 7.51648C3.80276 5.45344 5.45332 3.8019 7.51636 3.70593L18.5486 3.19226C22.6791 1.24804 27.2923 0.160034 32.1599 0.160034Z"/>
</mask>
<path d="M32.1599 0.160034C37.0272 0.160034 41.64 1.24828 45.7703 3.19226L56.8035 3.70593C58.8665 3.8019 60.518 5.45344 60.614 7.51648L61.1267 18.5497C63.0708 22.6801 64.1599 27.2926 64.1599 32.16C64.1599 37.0272 63.0706 41.6392 61.1267 45.7694L60.614 56.8036C60.518 58.8666 58.8665 60.5182 56.8035 60.6141L45.7703 61.1268C41.6399 63.0709 37.0274 64.16 32.1599 64.16C27.2922 64.16 22.6792 63.0712 18.5486 61.1268L7.51636 60.6141C5.45332 60.5182 3.80276 58.8666 3.70679 56.8036L3.19312 45.7714C1.24879 41.6408 0.159912 37.0278 0.159912 32.16C0.159912 27.292 1.24855 22.6785 3.19312 18.5477L3.70679 7.51648C3.80276 5.45344 5.45332 3.8019 7.51636 3.70593L18.5486 3.19226C22.6791 1.24804 27.2923 0.160034 32.1599 0.160034Z" fill="#EF8997"/>
<path d="M45.7703 3.19226L45.2252 4.3504L45.456 4.45901L45.7107 4.47088L45.7703 3.19226ZM56.8035 3.70593L56.7439 4.98455L56.744 4.98455L56.8035 3.70593ZM60.614 7.51648L61.8926 7.45706L61.8926 7.457L60.614 7.51648ZM61.1267 18.5497L59.8481 18.6091L59.8599 18.864L59.9686 19.0948L61.1267 18.5497ZM61.1267 45.7694L59.9686 45.2243L59.8599 45.4552L59.8481 45.71L61.1267 45.7694ZM60.614 56.8036L61.8926 56.8631L61.8926 56.863L60.614 56.8036ZM56.8035 60.6141L56.8629 61.8928L56.8629 61.8928L56.8035 60.6141ZM45.7703 61.1268L45.7108 59.8482L45.456 59.8601L45.2252 59.9687L45.7703 61.1268ZM18.5486 61.1268L19.0937 59.9687L18.8629 59.8601L18.608 59.8482L18.5486 61.1268ZM7.51636 60.6141L7.45688 61.8928L7.45694 61.8928L7.51636 60.6141ZM3.70679 56.8036L4.9854 56.7441L4.9854 56.7441L3.70679 56.8036ZM3.19312 45.7714L4.47173 45.7118L4.45987 45.457L4.35123 45.2262L3.19312 45.7714ZM3.19312 18.5477L4.35121 19.0929L4.45986 18.8621L4.47173 18.6073L3.19312 18.5477ZM3.70679 7.51648L4.9854 7.57602L4.9854 7.57596L3.70679 7.51648ZM7.51636 3.70593L7.57584 4.98455L7.57589 4.98455L7.51636 3.70593ZM18.5486 3.19226L18.6081 4.47088L18.8629 4.45901L19.0937 4.35038L18.5486 3.19226ZM32.1599 0.160034V1.44003C36.8345 1.44003 41.2615 2.48485 45.2252 4.3504L45.7703 3.19226L46.3154 2.03413C42.0184 0.0117057 37.2199 -1.11997 32.1599 -1.11997V0.160034ZM45.7703 3.19226L45.7107 4.47088L56.7439 4.98455L56.8035 3.70593L56.863 2.42732L45.8298 1.91365L45.7703 3.19226ZM56.8035 3.70593L56.744 4.98455C58.1469 5.04981 59.2701 6.17309 59.3354 7.57596L60.614 7.51648L61.8926 7.457C61.766 4.73379 59.5862 2.55399 56.8629 2.42732L56.8035 3.70593ZM60.614 7.51648L59.3354 7.57589L59.8481 18.6091L61.1267 18.5497L62.4053 18.4903L61.8926 7.45706L60.614 7.51648ZM61.1267 18.5497L59.9686 19.0948C61.8343 23.0587 62.8799 27.4854 62.8799 32.16H64.1599H65.4399C65.4399 27.0998 64.3073 22.3015 62.2848 18.0046L61.1267 18.5497ZM64.1599 32.16H62.8799C62.8799 36.8343 61.8341 41.2606 59.9686 45.2243L61.1267 45.7694L62.2849 46.3145C64.307 42.0179 65.4399 37.2201 65.4399 32.16H64.1599ZM61.1267 45.7694L59.8481 45.71L59.3354 56.7442L60.614 56.8036L61.8926 56.863L62.4053 45.8288L61.1267 45.7694ZM60.614 56.8036L59.3354 56.7441C59.2701 58.147 58.1469 59.2703 56.744 59.3355L56.8035 60.6141L56.8629 61.8928C59.5862 61.7661 61.766 59.5863 61.8926 56.8631L60.614 56.8036ZM56.8035 60.6141L56.7441 59.3355L45.7108 59.8482L45.7703 61.1268L45.8297 62.4055L56.8629 61.8928L56.8035 60.6141ZM45.7703 61.1268L45.2252 59.9687C41.2613 61.8344 36.8345 62.88 32.1599 62.88V64.16V65.44C37.2202 65.44 42.0185 64.3074 46.3154 62.285L45.7703 61.1268ZM32.1599 64.16V62.88C27.4849 62.88 23.0577 61.8346 19.0937 59.9687L18.5486 61.1268L18.0034 62.2849C22.3006 64.3077 27.0994 65.44 32.1599 65.44V64.16ZM18.5486 61.1268L18.608 59.8482L7.57578 59.3355L7.51636 60.6141L7.45694 61.8928L18.4892 62.4055L18.5486 61.1268ZM7.51636 60.6141L7.57584 59.3355C6.17338 59.2703 5.05068 58.1474 4.9854 56.7441L3.70679 56.8036L2.42817 56.8631C2.55483 59.5859 4.73325 61.7661 7.45688 61.8928L7.51636 60.6141ZM3.70679 56.8036L4.9854 56.7441L4.47173 45.7118L3.19312 45.7714L1.9145 45.8309L2.42817 56.8631L3.70679 56.8036ZM3.19312 45.7714L4.35123 45.2262C2.48532 41.2622 1.43991 36.835 1.43991 32.16H0.159912H-1.12009C-1.12009 37.2206 0.0122581 42.0193 2.035 46.3165L3.19312 45.7714ZM0.159912 32.16H1.43991C1.43991 27.4847 2.48511 23.057 4.35121 19.0929L3.19312 18.5477L2.03502 18.0026C0.011995 22.3 -1.12009 27.0993 -1.12009 32.16H0.159912ZM3.19312 18.5477L4.47173 18.6073L4.9854 7.57602L3.70679 7.51648L2.42817 7.45694L1.9145 18.4882L3.19312 18.5477ZM3.70679 7.51648L4.9854 7.57596C5.05068 6.17268 6.17338 5.04979 7.57584 4.98455L7.51636 3.70593L7.45688 2.42732C4.73325 2.55401 2.55483 4.7342 2.42817 7.457L3.70679 7.51648ZM7.51636 3.70593L7.57589 4.98455L18.6081 4.47088L18.5486 3.19226L18.489 1.91365L7.45682 2.42732L7.51636 3.70593ZM18.5486 3.19226L19.0937 4.35038C23.0575 2.48465 27.4849 1.44003 32.1599 1.44003V0.160034V-1.11997C27.0997 -1.11997 22.3007 0.0114426 18.0035 2.03414L18.5486 3.19226Z" fill="#F17146" mask="url(#path-1-inside-1_79_2172)"/>
</g>
<g filter="url(#filter1_gn_79_2172)">
<mask id="path-3-inside-2_79_2172" fill="white">
<path d="M32.1604 9.76001C35.5673 9.76007 38.7957 10.5224 41.6868 11.8831L48.4641 12.1985C50.4445 12.2907 52.0291 13.8753 52.1213 15.8557L52.4358 22.6321C53.7969 25.5236 54.5598 28.7528 54.5598 32.1604C54.5598 35.5675 53.7966 38.7956 52.4358 41.6868L52.1213 48.4641C52.0292 50.4446 50.4445 52.0291 48.4641 52.1213L41.6868 52.4358C38.7956 53.7966 35.5675 54.5598 32.1604 54.5598C28.7528 54.5598 25.5236 53.7969 22.6321 52.4358L15.8557 52.1213C13.8752 52.0292 12.2906 50.4446 12.1985 48.4641L11.8831 41.6868C10.5224 38.7957 9.76007 35.5673 9.76001 32.1604C9.76001 28.753 10.522 25.5235 11.8831 22.6321L12.1985 15.8557C12.2907 13.8753 13.8753 12.2906 15.8557 12.1985L22.6321 11.8831C25.5235 10.522 28.753 9.76001 32.1604 9.76001Z"/>
</mask>
<path d="M32.1604 9.76001C35.5673 9.76007 38.7957 10.5224 41.6868 11.8831L48.4641 12.1985C50.4445 12.2907 52.0291 13.8753 52.1213 15.8557L52.4358 22.6321C53.7969 25.5236 54.5598 28.7528 54.5598 32.1604C54.5598 35.5675 53.7966 38.7956 52.4358 41.6868L52.1213 48.4641C52.0292 50.4446 50.4445 52.0291 48.4641 52.1213L41.6868 52.4358C38.7956 53.7966 35.5675 54.5598 32.1604 54.5598C28.7528 54.5598 25.5236 53.7969 22.6321 52.4358L15.8557 52.1213C13.8752 52.0292 12.2906 50.4446 12.1985 48.4641L11.8831 41.6868C10.5224 38.7957 9.76007 35.5673 9.76001 32.1604C9.76001 28.753 10.522 25.5235 11.8831 22.6321L12.1985 15.8557C12.2907 13.8753 13.8753 12.2906 15.8557 12.1985L22.6321 11.8831C25.5235 10.522 28.753 9.76001 32.1604 9.76001Z" fill="#F17146"/>
<path d="M32.1604 9.76001L32.1604 8.96001H32.1604V9.76001ZM41.6868 11.8831L41.3461 12.6069L41.4903 12.6748L41.6496 12.6822L41.6868 11.8831ZM48.4641 12.1985L48.5013 11.3994L48.5013 11.3994L48.4641 12.1985ZM52.1213 15.8557L52.9205 15.8186L52.9205 15.8185L52.1213 15.8557ZM52.4358 22.6321L51.6367 22.6692L51.644 22.8285L51.712 22.9728L52.4358 22.6321ZM54.5598 32.1604L55.3598 32.1604V32.1604H54.5598ZM52.4358 41.6868L51.712 41.3461L51.644 41.4904L51.6367 41.6497L52.4358 41.6868ZM52.1213 48.4641L52.9205 48.5013L52.9205 48.5012L52.1213 48.4641ZM48.4641 52.1213L48.5012 52.9205L48.5013 52.9205L48.4641 52.1213ZM41.6868 52.4358L41.6497 51.6367L41.4904 51.644L41.3461 51.712L41.6868 52.4358ZM32.1604 54.5598V55.3598H32.1604L32.1604 54.5598ZM22.6321 52.4358L22.9728 51.712L22.8285 51.644L22.6692 51.6367L22.6321 52.4358ZM15.8557 52.1213L15.8185 52.9205L15.8186 52.9205L15.8557 52.1213ZM12.1985 48.4641L12.9976 48.4269L12.9976 48.4269L12.1985 48.4641ZM11.8831 41.6868L12.6822 41.6496L12.6748 41.4903L12.6069 41.3461L11.8831 41.6868ZM9.76001 32.1604H8.96001V32.1604L9.76001 32.1604ZM11.8831 22.6321L12.6069 22.9728L12.6748 22.8285L12.6822 22.6693L11.8831 22.6321ZM12.1985 15.8557L11.3994 15.8185L11.3994 15.8185L12.1985 15.8557ZM15.8557 12.1985L15.8929 12.9976L15.8929 12.9976L15.8557 12.1985ZM22.6321 11.8831L22.6693 12.6822L22.8285 12.6748L22.9728 12.6069L22.6321 11.8831ZM32.1604 9.76001L32.1604 10.56C35.4468 10.5601 38.5591 11.2952 41.3461 12.6069L41.6868 11.8831L42.0274 11.1592C39.0323 9.74957 35.6878 8.96007 32.1604 8.96001L32.1604 9.76001ZM41.6868 11.8831L41.6496 12.6822L48.4269 12.9976L48.4641 12.1985L48.5013 11.3994L41.724 11.0839L41.6868 11.8831ZM48.4641 12.1985L48.4269 12.9976C49.9947 13.0706 51.2492 14.3251 51.3222 15.8929L52.1213 15.8557L52.9205 15.8185C52.8091 13.4255 50.8943 11.5108 48.5013 11.3994L48.4641 12.1985ZM52.1213 15.8557L51.3222 15.8928L51.6367 22.6692L52.4358 22.6321L53.2349 22.595L52.9205 15.8186L52.1213 15.8557ZM52.4358 22.6321L51.712 22.9728C53.0241 25.7603 53.7598 28.8734 53.7598 32.1604H54.5598H55.3598C55.3598 28.6322 54.5697 25.2869 53.1596 22.2914L52.4358 22.6321ZM54.5598 32.1604L53.7598 32.1604C53.7598 35.4468 53.0238 38.5588 51.712 41.3461L52.4358 41.6868L53.1596 42.0275C54.5693 39.0324 55.3598 35.6881 55.3598 32.1604L54.5598 32.1604ZM52.4358 41.6868L51.6367 41.6497L51.3222 48.427L52.1213 48.4641L52.9205 48.5012L53.2349 41.7238L52.4358 41.6868ZM52.1213 48.4641L51.3222 48.4269C51.2493 49.9947 49.9948 51.2492 48.4269 51.3222L48.4641 52.1213L48.5013 52.9205C50.8943 52.809 52.8092 50.8944 52.9205 48.5013L52.1213 48.4641ZM48.4641 52.1213L48.427 51.3222L41.6497 51.6367L41.6868 52.4358L41.7238 53.2349L48.5012 52.9205L48.4641 52.1213ZM41.6868 52.4358L41.3461 51.712C38.5588 53.0238 35.4468 53.7598 32.1604 53.7598L32.1604 54.5598L32.1604 55.3598C35.6881 55.3598 39.0324 54.5693 42.0275 53.1596L41.6868 52.4358ZM32.1604 54.5598V53.7598C28.8734 53.7598 25.7603 53.0241 22.9728 51.712L22.6321 52.4358L22.2914 53.1596C25.2869 54.5697 28.6322 55.3598 32.1604 55.3598V54.5598ZM22.6321 52.4358L22.6692 51.6367L15.8928 51.3222L15.8557 52.1213L15.8186 52.9205L22.595 53.2349L22.6321 52.4358ZM15.8557 52.1213L15.8929 51.3222C14.325 51.2493 13.0706 49.9948 12.9976 48.4269L12.1985 48.4641L11.3994 48.5013C11.5107 50.8944 13.4254 52.8092 15.8185 52.9205L15.8557 52.1213ZM12.1985 48.4641L12.9976 48.4269L12.6822 41.6496L11.8831 41.6868L11.0839 41.724L11.3994 48.5013L12.1985 48.4641ZM11.8831 41.6868L12.6069 41.3461C11.2952 38.5591 10.5601 35.4468 10.56 32.1604L9.76001 32.1604L8.96001 32.1604C8.96007 35.6878 9.74957 39.0323 11.1592 42.0274L11.8831 41.6868ZM9.76001 32.1604H10.56C10.56 28.8734 11.2949 25.76 12.6069 22.9728L11.8831 22.6321L11.1592 22.2914C9.7492 25.2869 8.96001 28.6326 8.96001 32.1604H9.76001ZM11.8831 22.6321L12.6822 22.6693L12.9976 15.8929L12.1985 15.8557L11.3994 15.8185L11.0839 22.5949L11.8831 22.6321ZM12.1985 15.8557L12.9976 15.8929C13.0706 14.325 14.3251 13.0706 15.8929 12.9976L15.8557 12.1985L15.8185 11.3994C13.4254 11.5107 11.5108 13.4255 11.3994 15.8185L12.1985 15.8557ZM15.8557 12.1985L15.8929 12.9976L22.6693 12.6822L22.6321 11.8831L22.5949 11.0839L15.8185 11.3994L15.8557 12.1985ZM22.6321 11.8831L22.9728 12.6069C25.76 11.2949 28.8734 10.56 32.1604 10.56V9.76001V8.96001C28.6326 8.96001 25.2869 9.7492 22.2914 11.1592L22.6321 11.8831Z" fill="white" mask="url(#path-3-inside-2_79_2172)"/>
</g>
<defs>
<filter id="filter0_gn_79_2172" x="-8.7887e-05" y="3.41833e-05" width="64.32" height="64.32" filterUnits="userSpaceOnUse" color-interpolation-filters="sRGB">
<feFlood flood-opacity="0" result="BackgroundImageFix"/>
<feBlend mode="normal" in="SourceGraphic" in2="BackgroundImageFix" result="shape"/>
<feTurbulence type="fractalNoise" baseFrequency="2.5000002384185791 2.5000002384185791" numOctaves="3" seed="3459" />
<feDisplacementMap in="shape" scale="0.31999999284744263" xChannelSelector="R" yChannelSelector="G" result="displacedImage" width="100%" height="100%" />
<feMerge result="effect1_texture_79_2172">
<feMergeNode in="displacedImage"/>
</feMerge>
<feTurbulence type="fractalNoise" baseFrequency="6.25 6.25" stitchTiles="stitch" numOctaves="3" result="noise" seed="897" />
<feColorMatrix in="noise" type="luminanceToAlpha" result="alphaNoise" />
<feComponentTransfer in="alphaNoise" result="coloredNoise1">
<feFuncA type="discrete" tableValues="0 0 0 0 0 0 0 0 0 0 0 0 0 0 0 0 0 0 1 1 1 1 1 1 1 1 1 1 1 1 1 0 0 0 0 0 0 0 0 0 0 0 0 0 0 0 0 0 0 0 0 0 0 0 0 0 0 0 0 0 0 0 0 0 0 0 0 0 0 0 0 0 0 0 0 0 0 0 0 0 0 0 0 0 0 0 0 0 0 0 0 0 0 0 0 0 0 0 0 0 "/>
</feComponentTransfer>
<feComposite operator="in" in2="effect1_texture_79_2172" in="coloredNoise1" result="noise1Clipped" />
<feFlood flood-color="#EF8997" result="color1Flood" />
<feComposite operator="in" in2="noise1Clipped" in="color1Flood" result="color1" />
<feMerge result="effect2_noise_79_2172">
<feMergeNode in="effect1_texture_79_2172" />
<feMergeNode in="color1" />
</feMerge>
</filter>
<filter id="filter1_gn_79_2172" x="9.60001" y="9.60001" width="45.1198" height="45.1198" filterUnits="userSpaceOnUse" color-interpolation-filters="sRGB">
<feFlood flood-opacity="0" result="BackgroundImageFix"/>
<feBlend mode="normal" in="SourceGraphic" in2="BackgroundImageFix" result="shape"/>
<feTurbulence type="fractalNoise" baseFrequency="2.5000002384185791 2.5000002384185791" numOctaves="3" seed="3459" />
<feDisplacementMap in="shape" scale="0.31999999284744263" xChannelSelector="R" yChannelSelector="G" result="displacedImage" width="100%" height="100%" />
<feMerge result="effect1_texture_79_2172">
<feMergeNode in="displacedImage"/>
</feMerge>
<feTurbulence type="fractalNoise" baseFrequency="6.25 6.25" stitchTiles="stitch" numOctaves="3" result="noise" seed="897" />
<feColorMatrix in="noise" type="luminanceToAlpha" result="alphaNoise" />
<feComponentTransfer in="alphaNoise" result="coloredNoise1">
<feFuncA type="discrete" tableValues="0 0 0 0 0 0 0 0 0 0 0 0 0 0 0 0 0 0 1 1 1 1 1 1 1 1 1 1 1 1 1 0 0 0 0 0 0 0 0 0 0 0 0 0 0 0 0 0 0 0 0 0 0 0 0 0 0 0 0 0 0 0 0 0 0 0 0 0 0 0 0 0 0 0 0 0 0 0 0 0 0 0 0 0 0 0 0 0 0 0 0 0 0 0 0 0 0 0 0 0 "/>
</feComponentTransfer>
<feComposite operator="in" in2="effect1_texture_79_2172" in="coloredNoise1" result="noise1Clipped" />
<feFlood flood-color="#EF8997" result="color1Flood" />
<feComposite operator="in" in2="noise1Clipped" in="color1Flood" result="color1" />
<feMerge result="effect2_noise_79_2172">
<feMergeNode in="effect1_texture_79_2172" />
<feMergeNode in="color1" />
</feMerge>
</filter>
</defs>
</svg>
