<svg width="64" height="64" viewBox="0 0 64 64" fill="none" xmlns="http://www.w3.org/2000/svg">
<path d="M40.0625 11.6914L40.2881 11.9902L40.6592 11.9395L48.0254 10.9268C50.9647 10.5227 53.4773 13.0353 53.0732 15.9746L52.0605 23.3408L52.0098 23.7119L52.3086 23.9375L62.9404 32L52.3086 40.0625L52.0098 40.2881L52.0605 40.6592L53.0732 48.0254C53.4773 50.9647 50.9646 53.4773 48.0254 53.0732L40.6592 52.0605L40.2881 52.0098L40.0625 52.3086L32 62.9404L23.9375 52.3086L23.7119 52.0098L23.3408 52.0605L15.9746 53.0732C13.0353 53.4773 10.5227 50.9646 10.9268 48.0254L11.9395 40.6592L11.9902 40.2881L11.6914 40.0625L1.05859 32L11.6914 23.9375L11.9902 23.7119L11.9395 23.3408L10.9268 15.9746C10.5227 13.0353 13.0353 10.5227 15.9746 10.9268L23.3408 11.9395L23.7119 11.9902L23.9375 11.6914L32 1.05859L40.0625 11.6914Z" fill="#F17146" stroke="#EF8997" stroke-width="1.28"/>
<path d="M37.7454 17.7064L37.8586 17.8558L38.0442 17.8304L43.2004 17.1215C45.3418 16.8273 47.1726 18.6588 46.8782 20.8002L46.1692 25.9554L46.1438 26.141L46.2932 26.2543L53.8694 31.9994L46.2932 37.7455L46.1438 37.8588L46.1692 38.0443L46.8782 43.2006C47.1723 45.3418 45.3417 47.1724 43.2004 46.8783L38.0442 46.1693L37.8586 46.1439L37.7454 46.2933L31.9993 53.8695L26.2542 46.2933L26.1409 46.1439L25.9553 46.1693L20.8 46.8783C18.6586 47.1727 16.8272 45.3419 17.1213 43.2006L17.8303 38.0443L17.8557 37.8588L17.7063 37.7455L10.1292 31.9994L17.7063 26.2543L17.8557 26.141L17.8303 25.9554L17.1213 20.8002C16.8269 18.6586 18.6585 16.827 20.8 17.1215L25.9553 17.8304L26.1409 17.8558L26.2542 17.7064L31.9993 10.1293L37.7454 17.7064Z" fill="#EF8997" stroke="white" stroke-width="0.64"/>
</svg>
