<svg width="64" height="64" viewBox="0 0 64 64" fill="none" xmlns="http://www.w3.org/2000/svg">
<path d="M30.0312 1.67578C31.2734 1.06807 32.7266 1.06807 33.9688 1.67578L42.7402 5.9668L42.7764 5.98438L42.8135 5.99805L54.123 9.87598L58.002 21.1865L58.0156 21.2236L58.0332 21.2598L62.3242 30.0312C62.9319 31.2734 62.9319 32.7266 62.3242 33.9688L58.0332 42.7402L58.0156 42.7764L58.002 42.8135L54.123 54.123L42.8135 58.002L42.7764 58.0156L42.7402 58.0332L33.9688 62.3242C32.7266 62.9319 31.2734 62.9319 30.0312 62.3242L21.2598 58.0332L21.2236 58.0156L21.1865 58.002L9.87598 54.123L5.99805 42.8135L5.98438 42.7764L5.9668 42.7402L1.67578 33.9688C1.06807 32.7266 1.06807 31.2734 1.67578 30.0312L5.9668 21.2598L5.98438 21.2236L5.99805 21.1865L9.87598 9.87598L21.1865 5.99805L21.2236 5.98438L21.2598 5.9668L30.0312 1.67578Z" fill="#EF8997" stroke="#F17146" stroke-width="1.28"/>
<path d="M15.8945 17.9228C16.2213 16.9701 16.9699 16.2216 17.9226 15.8947L24.3894 13.6774L24.408 13.6712L24.4253 13.6622L31.9984 9.95608L39.5742 13.6622L39.5922 13.6705L39.6115 13.6774L46.077 15.8947C47.0297 16.2215 47.7782 16.9701 48.1051 17.9228L50.3231 24.3889L50.3293 24.4076L50.3376 24.4255L54.0437 32L50.3376 39.5745L50.3293 39.5924L50.3231 39.6111L48.1051 46.0772C47.7782 47.0299 47.0297 47.7785 46.077 48.1053L39.6115 50.3226L39.5922 50.3295L39.5742 50.3378L31.9984 54.0439L24.4253 50.3378L24.408 50.3288L24.3894 50.3226L17.9226 48.1053C16.9699 47.7784 16.2213 47.0299 15.8945 46.0772L13.6778 39.6111L13.6709 39.5917L13.662 39.5745L9.95586 32L13.662 24.4255L13.6709 24.4083L13.6778 24.3889L15.8945 17.9228Z" fill="#F17146" stroke="white" stroke-width="0.64"/>
</svg>
